#N canvas 349 226 780 546 12;
#X obj 252 77 inlet;
#X obj 251 194 osc~;
#X obj 247 135 mtof;
#X floatatom 531 176 5 0 0 0 - - -;
#X obj 373 173 bng 15 250 50 0 empty empty empty 17 7 0 10 -262144
-1 -1;
#X msg 373 216 1 5;
#X obj 407 253 line~;
#X obj 440 223 pack 0 500;
#X obj 263 284 *~;
#X obj 439 194 delay 100;
#X obj 251 368 outlet~;
#X obj 400 286 *~;
#X obj 400 310 *~;
#X obj 528 121 r decay;
#X obj 576 282 Panic_Button-on_off;
#X text 585 206 David López Saludes \; 24/02/2021;
#X text 586 178 Core synth structure;
#X connect 0 0 2 0;
#X connect 1 0 8 0;
#X connect 2 0 1 0;
#X connect 2 0 4 0;
#X connect 3 0 7 1;
#X connect 4 0 5 0;
#X connect 4 0 9 0;
#X connect 5 0 6 0;
#X connect 6 0 11 0;
#X connect 6 0 11 1;
#X connect 7 0 6 0;
#X connect 8 0 10 0;
#X connect 9 0 7 0;
#X connect 11 0 12 0;
#X connect 11 0 12 1;
#X connect 12 0 8 1;
#X connect 13 0 3 0;
