#N canvas -9 -9 1920 976 12;
#X obj 481 872 dac~;
#X obj 1546 171 Panic_Button-on_off;
#X obj 474 304 tgl 15 0 empty empty empty 17 7 0 10 -262144 -1 -1 0
1;
#X obj 879 186 vsl 15 128 30 5000 0 0 empty empty empty 0 -9 0 10 -262144
-1 -1 1201 1;
#X floatatom 985 335 5 0 0 0 - - -;
#X obj 593 802 hsl 128 15 0 0.1 0 0 empty empty empty -2 -8 0 10 -262144
-1 -1 8890 1;
#X floatatom 572 849 5 0 0 0 - - -;
#X obj 482 795 *~;
#N canvas 0 50 450 250 (subpatch) 0;
#X array Wave 100 float 3;
#A 0 0 0 0 0 0 0 0 0 0 0 0 0 0 0 0 0 0 0 0 0 0 0 0 0 0 0 0 0 0 0 0
0 0 0 0 0 0 0 0 0 0 0 0 0 0 0 0 0 0 0 0 0 0 0 0 0 0 0 0 0 0 0 0 0 0
0 0 0 0 0 0 0 0 0 0 0 0 0 0 0 0 0 0 0 0 0 0 0 0 0 0 0 0 0 0 0 0 0 0
0;
#X coords 0 1 100 -1 200 140 1;
#X restore 767 803 graph;
#X obj 605 927 tabwrite~ Wave;
#X obj 641 844 tgl 15 0 empty empty empty 17 7 0 10 -262144 -1 -1 0
1;
#X obj 613 877 metro 100;
#X text 1554 95 David López Saludes \; 23/02/2021;
#X floatatom 470 460 5 0 0 0 - - -;
#X msg 460 510 next \$1;
#N canvas 909 194 688 458 many_notes 0;
#X obj 45 27 table notes;
#X obj 62 74 inlet;
#X obj 61 137 bng 15 250 50 0 empty empty empty 17 7 0 10 -262144 -1
-1;
#X obj 61 157 i 0;
#X obj 77 185 + 1;
#X obj 77 209 % 6;
#X floatatom 37 236 5 0 0 0 - - -;
#X obj 37 259 tabread notes;
#X floatatom 35 293 5 0 0 0 - - -;
#X obj 506 299 Panic_Button-on_off;
#X text 515 223 David López Saludes \; 24/02/2021;
#X obj 44 323 outlet;
#X text 513 192 Many Notes Generator;
#X obj 62 105 metro;
#X obj 115 72 inlet;
#X connect 1 0 13 0;
#X connect 2 0 3 0;
#X connect 3 0 4 0;
#X connect 3 0 6 0;
#X connect 4 0 5 0;
#X connect 5 0 3 1;
#X connect 6 0 7 0;
#X connect 7 0 8 0;
#X connect 8 0 11 0;
#X connect 13 0 2 0;
#X connect 14 0 13 1;
#X restore 476 378 pd many_notes;
#X obj 462 600 clone mySynth.cl 64;
#X obj 928 482 hsl 128 15 10 2000 0 0 empty empty empty -2 -8 0 10
-262144 -1 -1 0 1;
#X floatatom 981 526 5 0 0 0 - - -;
#X obj 900 557 s decay;
#X floatatom 875 125 5 0 0 0 - - -;
#X obj 875 56 loadbang;
#X msg 874 88 500;
#X obj 592 689 loadbang;
#X msg 592 713 0.07;
#X floatatom 590 748 5 0 0 0 - - -;
#X text 1564 55 Main Sequencer;
#N canvas -9 -9 1920 976 sequence_randomization 0;
#X obj 466 177 metro;
#X obj 769 526 hradio 15 1 0 8 empty empty empty 0 -8 0 10 -262144
-1 -1 1;
#X floatatom 769 546 5 0 0 0 - - -;
#X obj 760 590 route 0 1 2 3 4 5 6 7;
#X obj 724 366 bng 15 250 50 0 empty empty empty 17 7 0 10 -262144
-1 -1;
#X obj 774 479 random 8;
#X obj 648 664 bng 15 250 50 0 empty empty empty 17 7 0 10 -262144
-1 -1;
#N canvas -211 35 1924 976 note_sequences 0;
#X obj -42 222 inlet;
#X obj 153 219 inlet;
#X obj 347 224 inlet;
#X obj 541 226 inlet;
#X obj 736 221 inlet;
#X obj 931 228 inlet;
#X obj 1130 226 inlet;
#X obj 1327 210 inlet;
#X text -40 183 0;
#X text 1554 95 David López Saludes \; 25/02/2021;
#X obj 1545 171 Panic_Button-on_off;
#X text 166 176 1;
#X text 365 190 2;
#X text 554 191 3;
#X text 745 193 4;
#X text 947 197 5;
#X text 1140 200 6;
#X text 1336 185 7;
#X msg -42 270 \; notes 0 60 67 62 68 70 58;
#X msg 150 269 \; notes 0 58 55 58 56 79 70;
#X msg 342 264 \; notes 0 72 75 58 56 79 60;
#X msg 538 271 \; notes 0 60 69 80 59 74 50;
#X msg 733 269 \; notes 0 70 57 82 78 71 58;
#X msg 930 270 \; notes 0 64 75 69 61 79 83;
#X msg 1130 267 \; notes 0 75 63 55 62 74 68;
#X msg 1328 261 \; notes 0 80 79 52 68 60 68;
#X text 1553 72 Note Sequences;
#X connect 0 0 18 0;
#X connect 1 0 19 0;
#X connect 2 0 20 0;
#X connect 3 0 21 0;
#X connect 4 0 22 0;
#X connect 5 0 23 0;
#X connect 6 0 24 0;
#X connect 7 0 25 0;
#X restore 749 701 pd note_sequences;
#X obj 686 668 bng 15 250 50 0 empty empty empty 17 7 0 10 -262144
-1 -1;
#X obj 728 667 bng 15 250 50 0 empty empty empty 17 7 0 10 -262144
-1 -1;
#X obj 849 663 bng 15 250 50 0 empty empty empty 17 7 0 10 -262144
-1 -1;
#X obj 889 655 bng 15 250 50 0 empty empty empty 17 7 0 10 -262144
-1 -1;
#X obj 826 662 bng 15 250 50 0 empty empty empty 17 7 0 10 -262144
-1 -1;
#X obj 799 662 bng 15 250 50 0 empty empty empty 17 7 0 10 -262144
-1 -1;
#X obj 761 670 bng 15 250 50 0 empty empty empty 17 7 0 10 -262144
-1 -1;
#X obj 393 94 inlet;
#X obj 545 100 inlet;
#X text 389 53 Toggle;
#X text 539 57 BPM modulation;
#X obj 1546 171 Panic_Button-on_off;
#X text 1554 95 David López Saludes \; 25/02/2021;
#X text 1547 55 Sequence Randomizer;
#X obj 473 246 hradio 15 1 0 2 empty empty empty 0 -8 0 10 -262144
-1 -1 0;
#X obj 497 345 bng 15 250 50 0 empty empty empty 17 7 0 10 -262144
-1 -1;
#X floatatom 294 627 5 0 0 0 - - -;
#X obj 294 506 f;
#X obj 336 503 + 1;
#X msg 373 471 0;
#X obj 381 433 loadbang;
#X obj 298 552 mod 8;
#X obj 297 595 hradio 15 1 0 8 empty empty empty 0 -8 0 10 -262144
-1 -1 6;
#N canvas -9 -9 1920 976 not_random_sequences 0;
#X obj 812 142 inlet;
#X obj 814 199 sel 0 1 2 3 4 5 6 7;
#X obj -485 336 vradio 15 1 0 3 empty empty empty 0 -8 0 10 -262144
-1 -1 1;
#X obj -485 396 route 0 1 2;
#X msg -540 485 \; notes 0 60 67 62 68 70 58;
#X msg -348 487 \; notes 0 58 55 58 56 79 70;
#X msg -692 484 \; notes 0 0 0 0 0 0 0;
#X msg -154 487 \; notes 0 0 0 0 0 0 0;
#X obj -26 332 vradio 15 1 0 3 empty empty empty 0 -8 0 10 -262144
-1 -1 2;
#X obj -26 392 route 0 1 2;
#X obj 511 323 vradio 15 1 0 3 empty empty empty 0 -8 0 10 -262144
-1 -1 2;
#X obj 506 383 route 0 1 2;
#X obj 1049 332 vradio 15 1 0 3 empty empty empty 0 -8 0 10 -262144
-1 -1 1;
#X obj 1045 392 route 0 1 2;
#X obj 1494 334 vradio 15 1 0 3 empty empty empty 0 -8 0 10 -262144
-1 -1 2;
#X obj 1494 393 route 0 1 2;
#X obj 2157 362 vradio 15 1 0 3 empty empty empty 0 -8 0 10 -262144
-1 -1 1;
#X obj 2157 422 route 0 1 2;
#X msg -4 489 \; notes 0 72 75 58 56 79 60;
#X msg 190 490 \; notes 0 60 69 80 59 74 50;
#X msg 388 488 \; notes 0 0 0 0 0 0 0;
#X msg 536 487 \; notes 0 70 57 82 78 71 58;
#X msg 729 488 \; notes 0 64 75 69 61 79 83;
#X msg 1078 487 \; notes 0 75 63 55 62 74 68;
#X msg 1276 486 \; notes 0 80 79 52 68 60 68;
#X msg 920 488 \; notes 0 0 0 0 0 0 0;
#X msg 1468 486 \; notes 0 0 0 0 0 0 0;
#X msg 1626 485 \; notes 0 45 53 75 82 64 61;
#X msg 1824 484 \; notes 0 50 69 72 58 65 78;
#X obj 2805 331 vradio 15 1 0 3 empty empty empty 0 -8 0 10 -262144
-1 -1 2;
#X obj 2805 391 route 0 1 2;
#X msg 2021 484 \; notes 0 0 0 0 0 0 0;
#X msg 2574 486 \; notes 0 0 0 0 0 0 0;
#X msg 2179 483 \; notes 0 55 63 85 72 62 71;
#X msg 2377 484 \; notes 0 65 79 82 68 55 78;
#X msg 2732 484 \; notes 0 55 63 85 72 54 71;
#X msg 2930 483 \; notes 0 60 59 82 68 75 88;
#X obj 2297 696 Panic_Button-on_off;
#X text 2305 615 David López Saludes \; 26/02/2021;
#X text 2259 587 Notes sequence not random controller;
#X connect 0 0 1 0;
#X connect 1 0 2 0;
#X connect 1 1 8 0;
#X connect 1 2 10 0;
#X connect 1 3 12 0;
#X connect 1 4 14 0;
#X connect 1 5 16 0;
#X connect 1 7 29 0;
#X connect 2 0 3 0;
#X connect 3 0 6 0;
#X connect 3 1 4 0;
#X connect 3 2 5 0;
#X connect 8 0 9 0;
#X connect 9 0 7 0;
#X connect 9 1 18 0;
#X connect 9 2 19 0;
#X connect 10 0 11 0;
#X connect 11 0 20 0;
#X connect 11 1 21 0;
#X connect 11 2 22 0;
#X connect 12 0 13 0;
#X connect 13 0 25 0;
#X connect 13 1 23 0;
#X connect 13 2 24 0;
#X connect 14 0 15 0;
#X connect 15 0 26 0;
#X connect 15 1 27 0;
#X connect 15 2 28 0;
#X connect 16 0 17 0;
#X connect 17 0 31 0;
#X connect 17 1 33 0;
#X connect 17 2 34 0;
#X connect 29 0 30 0;
#X connect 30 0 32 0;
#X connect 30 1 35 0;
#X connect 30 2 36 0;
#X restore 295 676 pd not_random_sequences;
#X text 446 219 Not Rand/Rand;
#X obj 479 300 route 0;
#X connect 0 0 22 0;
#X connect 1 0 2 0;
#X connect 2 0 3 0;
#X connect 3 0 6 0;
#X connect 3 1 8 0;
#X connect 3 2 9 0;
#X connect 3 3 14 0;
#X connect 3 4 13 0;
#X connect 3 5 12 0;
#X connect 3 6 10 0;
#X connect 3 7 11 0;
#X connect 4 0 5 0;
#X connect 5 0 1 0;
#X connect 6 0 7 0;
#X connect 8 0 7 1;
#X connect 9 0 7 2;
#X connect 10 0 7 6;
#X connect 11 0 7 7;
#X connect 12 0 7 5;
#X connect 13 0 7 4;
#X connect 14 0 7 3;
#X connect 15 0 0 0;
#X connect 16 0 0 1;
#X connect 22 0 33 0;
#X connect 24 0 31 0;
#X connect 25 0 26 0;
#X connect 25 0 29 0;
#X connect 26 0 25 1;
#X connect 27 0 25 1;
#X connect 28 0 27 0;
#X connect 29 0 30 0;
#X connect 30 0 24 0;
#X connect 33 0 25 0;
#X connect 33 0 23 0;
#X connect 33 1 4 0;
#X coords 0 976 1 975 95 60 0;
#X restore 705 355 pd sequence_randomization;
#X text 961 454 Decay Control;
#X text 676 769 Volume;
#X obj 609 238 hsl 128 15 30 500 0 0 empty empty empty -2 -8 0 10 -262144
-1 -1 2567 1;
#X floatatom 605 194 5 0 0 0 - - -;
#X msg 605 165 125;
#X obj 603 128 loadbang;
#X floatatom 619 273 5 0 0 0 - - -;
#X text 631 216 Velocity of the notes played;
#X text 912 262 Velocity of the sequence;
#X text 472 574 Ployphony synth (64 voices);
#X text 1484 363 This synth is a polyphonic notes sequencer. It works
with various abstractions. The pd many_notes is the one that switches
the notes that are being played in the polyphony \, to turn it on it
is only necessary to press the toggle that it has attached \, and to
control the velocity of the notes played there is a HSlider that fastens
or slows the reproduction. The pd sequence_randomization abstraction
is the core of the sequencing action \, and it has to modes. The not
random mode that plays different sets of notes in sequence \, in this
mode the user can mute any step of the sequence by going selecting
0 The random mode just displays different sets of notes in a randomly
manner. The velocity in which the sequence plays in each step can be
modified by a VSlider \, and to activate the sequence the user can
use the same toggle that activates the pd many_notes abstraction. There's
also a decay control that modifies the decay of each note with a HSlider.
The volume is controlled with a HSlider and also there is a Wave displayer
that shows the wave of the notes.;
#X connect 2 0 15 0;
#X connect 2 0 27 0;
#X connect 3 0 4 0;
#X connect 3 0 27 1;
#X connect 5 0 6 0;
#X connect 5 0 7 1;
#X connect 7 0 0 0;
#X connect 7 0 0 1;
#X connect 7 0 9 0;
#X connect 10 0 11 0;
#X connect 11 0 9 0;
#X connect 13 0 14 0;
#X connect 14 0 16 0;
#X connect 15 0 13 0;
#X connect 16 0 7 0;
#X connect 17 0 18 0;
#X connect 17 0 19 0;
#X connect 20 0 3 0;
#X connect 21 0 22 0;
#X connect 22 0 20 0;
#X connect 23 0 24 0;
#X connect 24 0 25 0;
#X connect 25 0 5 0;
#X connect 30 0 34 0;
#X connect 30 0 15 1;
#X connect 31 0 30 0;
#X connect 32 0 31 0;
#X connect 33 0 32 0;
#X coords 0 976 1 975 85 60 0;
